<svg width="18" height="18" viewBox="0 0 18 18" fill="none" xmlns="http://www.w3.org/2000/svg">
<g clip-path="url(#clip0_598_9529)">
<path fill-rule="evenodd" clip-rule="evenodd" d="M2.16543 7.06543C2.16543 4.34576 4.39527 2.14104 7.14592 2.14104C9.89657 2.14104 12.1264 4.34576 12.1264 7.06543C12.1264 8.10015 11.8036 9.06034 11.2522 9.85293L9.96517 11.1255C9.16355 11.6707 8.19243 11.9898 7.14592 11.9898C4.39527 11.9898 2.16543 9.78509 2.16543 7.06543ZM11.256 12.8459C10.0935 13.6555 8.67588 14.1309 7.14592 14.1309C3.19934 14.1309 0 10.9676 0 7.06543C0 3.1633 3.19934 0 7.14592 0C11.0925 0 14.2918 3.1633 14.2918 7.06543C14.2918 8.68224 13.7426 10.1722 12.8185 11.3629L18 16.486L16.4688 18L11.256 12.8459Z" fill="current"/>
</g>
<defs>
<clipPath id="clip0_598_9529">
<rect width="18" height="18" fill="white"/>
</clipPath>
</defs>
</svg>
